{
 "asset": {
  "version": "2.0",
  "generator": "melee-character-studio model_kit"
 },
 "scene": 0,
 "scenes": [
  {
   "nodes": [
    0
   ]
  }
 ],
 "nodes": [
  {
   "mesh": 0,
   "name": "model"
  }
 ],
 "meshes": [
  {
   "name": "model",
   "primitives": [
    {
     "attributes": {
      "POSITION": 0,
      "NORMAL": 1,
      "TEXCOORD_0": 2
     },
     "indices": 3,
     "material": 0
    }
   ]
  }
 ],
 "materials": [
  {
   "name": "atlas",
   "pbrMetallicRoughness": {
    "baseColorTexture": {
     "index": 0
    },
    "metallicFactor": 0.0,
    "roughnessFactor": 0.9
   }
  }
 ],
 "textures": [
  {
   "source": 0,
   "sampler": 0
  }
 ],
 "samplers": [
  {
   "magFilter": 9728,
   "minFilter": 9728
  }
 ],
 "images": [
  {
   "uri": "model.png"
  }
 ],
 "buffers": [
  {
   "uri": "model.bin",
   "byteLength": 102976
  }
 ],
 "bufferViews": [
  {
   "buffer": 0,
   "byteOffset": 0,
   "byteLength": 26448,
   "target": 34962
  },
  {
   "buffer": 0,
   "byteOffset": 26448,
   "byteLength": 26448,
   "target": 34962
  },
  {
   "buffer": 0,
   "byteOffset": 52896,
   "byteLength": 17632,
   "target": 34962
  },
  {
   "buffer": 0,
   "byteOffset": 70528,
   "byteLength": 32448,
   "target": 34963
  }
 ],
 "accessors": [
  {
   "bufferView": 0,
   "componentType": 5126,
   "count": 2204,
   "type": "VEC3",
   "min": [
    -14.274999999999999,
    -0.34999999999999987,
    -3.2
   ],
   "max": [
    14.274999999999999,
    28.2,
    3.5978074680536554
   ]
  },
  {
   "bufferView": 1,
   "componentType": 5126,
   "count": 2204,
   "type": "VEC3"
  },
  {
   "bufferView": 2,
   "componentType": 5126,
   "count": 2204,
   "type": "VEC2"
  },
  {
   "bufferView": 3,
   "componentType": 5125,
   "count": 8112,
   "type": "SCALAR"
  }
 ]
}
