{
 "asset": {
  "version": "2.0",
  "generator": "melee-character-studio model_kit"
 },
 "scene": 0,
 "scenes": [
  {
   "nodes": [
    0
   ]
  }
 ],
 "nodes": [
  {
   "mesh": 0,
   "name": "model"
  }
 ],
 "meshes": [
  {
   "name": "model",
   "primitives": [
    {
     "attributes": {
      "POSITION": 0,
      "NORMAL": 1,
      "TEXCOORD_0": 2
     },
     "indices": 3,
     "material": 0
    }
   ]
  }
 ],
 "materials": [
  {
   "name": "atlas",
   "pbrMetallicRoughness": {
    "baseColorTexture": {
     "index": 0
    },
    "metallicFactor": 0.0,
    "roughnessFactor": 0.9
   }
  }
 ],
 "textures": [
  {
   "source": 0,
   "sampler": 0
  }
 ],
 "samplers": [
  {
   "magFilter": 9728,
   "minFilter": 9728
  }
 ],
 "images": [
  {
   "uri": "model.png"
  }
 ],
 "buffers": [
  {
   "uri": "model.bin",
   "byteLength": 36384
  }
 ],
 "bufferViews": [
  {
   "buffer": 0,
   "byteOffset": 0,
   "byteLength": 11448,
   "target": 34962
  },
  {
   "buffer": 0,
   "byteOffset": 11448,
   "byteLength": 11448,
   "target": 34962
  },
  {
   "buffer": 0,
   "byteOffset": 22896,
   "byteLength": 7632,
   "target": 34962
  },
  {
   "buffer": 0,
   "byteOffset": 30528,
   "byteLength": 5856,
   "target": 34963
  }
 ],
 "accessors": [
  {
   "bufferView": 0,
   "componentType": 5126,
   "count": 954,
   "type": "VEC3",
   "min": [
    -18.020757046388663,
    -0.5990561583550595,
    -7.6
   ],
   "max": [
    18.020757046388663,
    26.2,
    5.068992006582969
   ]
  },
  {
   "bufferView": 1,
   "componentType": 5126,
   "count": 954,
   "type": "VEC3"
  },
  {
   "bufferView": 2,
   "componentType": 5126,
   "count": 954,
   "type": "VEC2"
  },
  {
   "bufferView": 3,
   "componentType": 5125,
   "count": 1464,
   "type": "SCALAR"
  }
 ]
}
